HIERARCHY
ROOT hip
{
  OFFSET 39.2557 83.0714 -63.7585
  CHANNELS 6 Xposition Yposition Zposition Zrotation Xrotation Yrotation
  JOINT abdomen
  {
    OFFSET 0 20.6881 -0.73152
    CHANNELS 3 Zrotation Xrotation Yrotation
    JOINT chest
    {
      OFFSET 0 11.7043 -0.48768
      CHANNELS 3 Zrotation Xrotation Yrotation
      JOINT neck
      {
        OFFSET 0 22.1894 -2.19456
        CHANNELS 3 Zrotation Xrotation Yrotation
        JOINT head
        {
          OFFSET -0.24384 7.07133 1.2192
          CHANNELS 3 Zrotation Xrotation Yrotation
          JOINT leftEye
          {
            OFFSET 4.14528 8.04674 8.04672
            CHANNELS 3 Zrotation Xrotation Yrotation
            End Site
            {
              OFFSET 1 0 0
            }
          }
          JOINT rightEye
          {
            OFFSET -3.6576 8.04674 8.04672
            CHANNELS 3 Zrotation Xrotation Yrotation
            End Site
            {
              OFFSET 1 0 0
            }
          }
        }
      }
      JOINT rCollar
      {
        OFFSET -2.68224 19.2634 -4.8768
        CHANNELS 3 Zrotation Xrotation Yrotation
        JOINT rShldr
        {
          OFFSET -8.77824 -1.95073 1.46304
          CHANNELS 3 Zrotation Xrotation Yrotation
          JOINT rForeArm
          {
            OFFSET -28.1742 -1.7115 0.48768
            CHANNELS 3 Zrotation Xrotation Yrotation
            JOINT rHand
            {
              OFFSET -22.5879 0.773209 7.07136
              CHANNELS 3 Zrotation Xrotation Yrotation
              JOINT rThumb1
              {
                OFFSET -1.2192 -0.487915 3.41376
                CHANNELS 3 Zrotation Xrotation Yrotation
                JOINT rThumb2
                {
                  OFFSET -3.37035 -0.52449 3.41376
                  CHANNELS 3 Zrotation Xrotation Yrotation
                  End Site
                  {
                    OFFSET -1.78271 -1.18214 1.43049
                  }
                }
              }
              JOINT rIndex1
              {
                OFFSET -7.75947 0.938293 5.60832
                CHANNELS 3 Zrotation Xrotation Yrotation
                JOINT rIndex2
                {
                  OFFSET -2.54057 -0.884171 1.56538
                  CHANNELS 3 Zrotation Xrotation Yrotation
                  End Site
                  {
                    OFFSET -1.62519 -0.234802 1.16502
                  }
                }
              }
              JOINT rMid1
              {
                OFFSET -8.24714 1.18213 3.41376
                CHANNELS 3 Zrotation Xrotation Yrotation
                JOINT rMid2
                {
                  OFFSET -3.10165 -0.590103 1.0647
                  CHANNELS 3 Zrotation Xrotation Yrotation
                  End Site
                  {
                    OFFSET -2.48547 -0.328903 0.83742
                  }
                }
              }
              JOINT rRing1
              {
                OFFSET -8.82822 0.546677 1.51678
                CHANNELS 3 Zrotation Xrotation Yrotation
                JOINT rRing2
                {
                  OFFSET -2.60934 -0.819778 -0.0198488
                  CHANNELS 3 Zrotation Xrotation Yrotation
                  End Site
                  {
                    OFFSET -2.33842 -0.294052 0.168128
                  }
                }
              }
              JOINT rPinky1
              {
                OFFSET -8.27202 -0.0477905 -0.4584
                CHANNELS 3 Zrotation Xrotation Yrotation
                JOINT rPinky2
                {
                  OFFSET -1.82734 -0.647385 -0.700984
                  CHANNELS 3 Zrotation Xrotation Yrotation
                  End Site
                  {
                    OFFSET -1.69225 -0.51767 -0.607171
                  }
                }
              }
            }
          }
        }
      }
      JOINT lCollar
      {
        OFFSET 2.68224 19.2634 -4.8768
        CHANNELS 3 Zrotation Xrotation Yrotation
        JOINT lShldr
        {
          OFFSET 8.77824 -1.95073 1.46304
          CHANNELS 3 Zrotation Xrotation Yrotation
          JOINT lForeArm
          {
            OFFSET 28.1742 -1.7115 0.48768
            CHANNELS 3 Zrotation Xrotation Yrotation
            JOINT lHand
            {
              OFFSET 22.5879 0.773209 7.07136
              CHANNELS 3 Zrotation Xrotation Yrotation
              JOINT lThumb1
              {
                OFFSET 1.2192 -0.487915 3.41376
                CHANNELS 3 Zrotation Xrotation Yrotation
                JOINT lThumb2
                {
                  OFFSET 3.37035 -0.52449 3.41376
                  CHANNELS 3 Zrotation Xrotation Yrotation
                  End Site
                  {
                    OFFSET 1.78271 -1.18214 1.43049
                  }
                }
              }
              JOINT lIndex1
              {
                OFFSET 7.75947 0.938293 5.60832
                CHANNELS 3 Zrotation Xrotation Yrotation
                JOINT lIndex2
                {
                  OFFSET 2.54057 -0.884171 1.56538
                  CHANNELS 3 Zrotation Xrotation Yrotation
                  End Site
                  {
                    OFFSET 1.62519 -0.234802 1.16502
                  }
                }
              }
              JOINT lMid1
              {
                OFFSET 8.24714 1.18213 3.41376
                CHANNELS 3 Zrotation Xrotation Yrotation
                JOINT lMid2
                {
                  OFFSET 3.10165 -0.590103 1.0647
                  CHANNELS 3 Zrotation Xrotation Yrotation
                  End Site
                  {
                    OFFSET 2.48547 -0.328903 0.83742
                  }
                }
              }
              JOINT lRing1
              {
                OFFSET 8.82822 0.546677 1.51678
                CHANNELS 3 Zrotation Xrotation Yrotation
                JOINT lRing2
                {
                  OFFSET 2.60934 -0.819778 -0.0198488
                  CHANNELS 3 Zrotation Xrotation Yrotation
                  End Site
                  {
                    OFFSET 2.33842 -0.294052 0.168128
                  }
                }
              }
              JOINT lPinky1
              {
                OFFSET 8.27202 -0.0477905 -0.4584
                CHANNELS 3 Zrotation Xrotation Yrotation
                JOINT lPinky2
                {
                  OFFSET 1.82734 -0.647385 -0.700984
                  CHANNELS 3 Zrotation Xrotation Yrotation
                  End Site
                  {
                    OFFSET 1.69225 -0.51767 -0.607171
                  }
                }
              }
            }
          }
        }
      }
    }
  }
  JOINT rButtock
  {
    OFFSET -8.77824 4.35084 1.2192
    CHANNELS 3 Zrotation Xrotation Yrotation
    JOINT rThigh
    {
      OFFSET 0 -1.70687 -2.19456
      CHANNELS 3 Zrotation Xrotation Yrotation
      JOINT rShin
      {
        OFFSET 0 -36.8199 0.73152
        CHANNELS 3 Zrotation Xrotation Yrotation
        JOINT rFoot
        {
          OFFSET 0.73152 -45.1104 -5.12064
          CHANNELS 3 Zrotation Xrotation Yrotation
          End Site
          {
            OFFSET -1.1221 -3.69964 12.103
          }
        }
      }
    }
  }
  JOINT lButtock
  {
    OFFSET 8.77824 4.35084 1.2192
    CHANNELS 3 Zrotation Xrotation Yrotation
    JOINT lThigh
    {
      OFFSET 0 -1.70687 -2.19456
      CHANNELS 3 Zrotation Xrotation Yrotation
      JOINT lShin
      {
        OFFSET 0 -36.8199 0.73152
        CHANNELS 3 Zrotation Xrotation Yrotation
        JOINT lFoot
        {
          OFFSET -0.73152 -45.1104 -5.12064
          CHANNELS 3 Zrotation Xrotation Yrotation
          End Site
          {
            OFFSET 1.1221 -3.69964 12.103
          }
        }
      }
    }
  }
}
MOTION
Frames:	7
Frame Time:	0.00833333
48.9136 85.5886 146.876 -2.0696 0.00896569 0.0395094 2.72258 0.000518375 0.07362 0.750832 0.0131642 0.129928 -2.71053e-014 7.95139e-016 -3.47873e-016 -8.1188e-014 9.54166e-015 -1.19581e-015 -0 0 0 -0 0 0 -1.38163e-014 1.72384e-016 -1.49089e-016 -2.84835e-013 3.57812e-015 -4.37326e-015 -4.95078e-012 1.61194e-012 -6.36111e-014 -5.6798e-011 -8.30274e-013 -9.54166e-013 -1.33968e-010 1.69479e-012 -2.17868e-012 -2.31369e-010 2.92611e-012 -3.76498e-012 -1.33964e-010 1.69683e-012 -2.1914e-012 7.73091 5.47488 0.417314 -1.33968e-010 1.69444e-012 -2.18186e-012 2.90554 0.965183 0.102902 -1.33962e-010 1.69494e-012 -2.18107e-012 10.2786 0.731801 0.0259123 -1.33975e-010 1.69802e-012 -2.1755e-012 2.22167 -0.733487 -0.20892 -1.3915e-014 1.68889e-016 -3.47873e-016 -2.88627e-013 3.79554e-015 -6.75868e-015 -4.96519e-012 -1.36028e-012 -2.8625e-014 -5.67696e-011 2.15132e-012 -9.95514e-013 -1.33936e-010 1.71075e-012 -2.18504e-012 -2.31295e-010 2.95155e-012 -3.75703e-012 -1.33943e-010 1.71193e-012 -2.18186e-012 -7.73091 5.47488 -0.417314 -1.33937e-010 1.71094e-012 -2.18504e-012 -2.90554 0.965183 -0.102902 -1.33951e-010 1.71084e-012 -2.18584e-012 -10.2786 0.731801 -0.0259123 -1.33925e-010 1.71352e-012 -2.1914e-012 -2.22167 -0.733487 0.20892 -2.03217e-016 0 -3.88251e-019 2.53308 -8.65197 -0.27448 0.00739443 10.0933 0.189511 -0.517002 -1.45221 0.0286275 2.03217e-016 0 3.88251e-019 1.608 -1.93183 -0.00953474 0.00859865 -2.07865 0.0706277 0.458732 3.99948 -0.132456 
50.6001 84.5704 138.965 -0.00277107 1.86975 -48.6967 1.39916 -2.35257 1.68182 1.98743 1.18939 0.550042 -1.09086 2.00753 0.248575 2.88384 1.45802 -0.499381 -0 0 0 -0 0 0 -9.70582e-015 4.97145e-015 -8.71585e-015 23.7984 -1.44917 -1.80714 -4.06927 -1.81997 6.38694 0.0381293 4.33491 0.602956 -1.57537e-010 1.05255e-010 -7.86625e-011 -2.73333e-010 1.8276e-010 -1.35002e-010 -1.57534e-010 1.05258e-010 -7.86752e-011 7.73091 5.47488 0.417314 -1.57538e-010 1.05256e-010 -7.86639e-011 2.90554 0.965183 0.102902 -1.57531e-010 1.05256e-010 -7.8663e-011 10.2786 0.731801 0.0259123 -1.57544e-010 1.05259e-010 -7.86588e-011 2.22167 -0.733487 -0.20892 -9.83549e-015 4.96697e-015 -8.91347e-015 -23.3204 7.22504 -1.66556 2.61692 -0.985202 -4.28209 -0.102163 7.10184 -0.970647 -2.22283e-010 -6.7923e-011 -8.57612e-012 -3.8398e-010 -1.16033e-010 -1.22434e-011 -2.22291e-010 -6.79235e-011 -8.5712e-012 -7.73091 5.47488 -0.417314 -2.22285e-010 -6.79251e-011 -8.57786e-012 -2.90554 0.965183 -0.102902 -2.22296e-010 -6.79257e-011 -8.57617e-012 -10.2786 0.731801 -0.0259123 -2.22273e-010 -6.79233e-011 -8.58146e-012 -2.22167 -0.733487 0.20892 -2.03217e-016 0 -3.88251e-019 2.66157 -10.9717 -0.213733 0.00349885 11.8116 0.218819 -0.613536 -4.76001 -1.33958 2.03217e-016 0 3.88251e-019 2.26493 -4.7088 -2.3099 0.0122503 0.949683 0.000489058 0.549091 0.0204701 1.12647 
50.5658 84.5761 138.951 3.53553 -1.02374 -100.099 0.144717 -4.8345 3.39056 3.27526 2.4329 0.994669 -2.26645 4.13179 0.509468 5.96201 2.99814 -1.03411 -0 0 0 -0 0 0 -5.60475e-015 1.29981e-014 -1.87945e-014 48.8539 -2.96157 -3.71683 -7.93728 -3.67162 13.1664 -0.0218235 8.904 1.25028 -1.8745e-010 2.30744e-010 -1.90877e-010 -3.26778e-010 4.00748e-010 -3.27846e-010 -1.8745e-010 2.30747e-010 -1.9089e-010 7.73091 5.47488 0.417314 -1.87452e-010 2.30746e-010 -1.90877e-010 2.90554 0.965183 0.102902 -1.87445e-010 2.30746e-010 -1.90876e-010 10.2786 0.731801 0.0259123 -1.87457e-010 2.30749e-010 -1.90873e-010 2.22167 -0.733487 -0.20892 -5.7698e-015 1.29926e-014 -1.89901e-014 -47.5104 14.8506 -3.51306 5.22829 -2.01077 -8.82042 0.0592694 14.5847 -2.04513 -3.42957e-010 -1.52265e-010 -8.45749e-012 -5.92336e-010 -2.59972e-010 -8.79229e-012 -3.42966e-010 -1.52268e-010 -8.45073e-012 -7.73091 5.47488 -0.417314 -3.42961e-010 -1.5227e-010 -8.46107e-012 -2.90554 0.965183 -0.102902 -3.42968e-010 -1.52271e-010 -8.4567e-012 -10.2786 0.731801 -0.0259123 -3.42949e-010 -1.52269e-010 -8.46167e-012 -2.22167 -0.733487 0.20892 -2.03217e-016 0 -3.88251e-019 2.80074 -13.4272 -0.157339 -0.00254749 13.6287 0.250476 -0.888938 -8.24933 -2.80558 2.03217e-016 0 3.88251e-019 2.71401 -7.63644 -4.77072 0.0242911 4.1628 -0.0740002 0.834848 -4.18582 2.46224 
50.5696 84.582 138.945 2.50667 -7.02463 -145.773 -0.849356 -7.03591 4.93118 4.4088 3.54096 1.39257 -3.32509 6.02212 0.749404 8.72794 4.37274 -1.50203 -0 0 0 -0 0 0 -1.4848e-015 1.45696e-014 -2.58494e-014 71.1206 -4.33018 -5.43525 -11.0116 -5.18908 19.233 -0.165401 12.9989 1.85114 -2.04674e-010 3.12377e-010 -2.3163e-010 -3.57261e-010 5.42428e-010 -3.97477e-010 -2.04675e-010 3.1238e-010 -2.31643e-010 7.73091 5.47488 0.417314 -2.04677e-010 3.12379e-010 -2.31628e-010 2.90554 0.965183 0.102902 -2.04669e-010 3.1238e-010 -2.31627e-010 10.2786 0.731801 0.0259123 -2.0468e-010 3.12382e-010 -2.31625e-010 2.22167 -0.733487 -0.20892 -1.67641e-015 1.45631e-014 -2.60447e-014 -68.6219 21.599 -5.33238 7.4126 -2.88965 -12.861 0.459946 21.2801 -3.10124 -3.98977e-010 -2.0719e-010 -2.13583e-011 -6.89348e-010 -3.54002e-010 -2.92162e-011 -3.98987e-010 -2.07194e-010 -2.13499e-011 -7.73091 5.47488 -0.417314 -3.98982e-010 -2.07197e-010 -2.13635e-011 -2.90554 0.965183 -0.102902 -3.98986e-010 -2.07199e-010 -2.13568e-011 -10.2786 0.731801 -0.0259123 -3.98969e-010 -2.07197e-010 -2.13616e-011 -2.22167 -0.733487 0.20892 -2.03217e-016 0 -3.88251e-019 2.93375 -15.6112 -0.0900895 -0.00978183 15.2483 0.279232 -1.28842 -11.3505 -4.14329 2.03217e-016 0 3.88251e-019 2.9021 -10.1992 -6.99837 0.0418696 7.00633 -0.140747 1.25717 -7.92141 3.67882 
50.569 84.5877 138.94 -1.93363 -10.3049 -178.012 -1.47435 -8.55764 6.02013 5.19325 4.31117 1.67153 -4.05508 7.32804 0.933526 10.6579 5.33491 -1.79917 -0 0 0 -0 0 0 2.68237e-015 2.91188e-018 -2.5345e-014 86.603 -5.35518 -6.66305 -12.9418 -6.13145 23.4481 -0.321028 15.9137 2.29648 -1.90173e-010 2.84369e-010 -9.37278e-011 -3.30337e-010 4.93342e-010 -1.59075e-010 -1.90175e-010 2.84372e-010 -9.37405e-011 7.73091 5.47488 0.417314 -1.90177e-010 2.84371e-010 -9.37246e-011 2.90554 0.965183 0.102902 -1.90169e-010 2.84372e-010 -9.3723e-011 10.2786 0.731801 0.0259123 -1.90179e-010 2.84374e-010 -9.37214e-011 2.22167 -0.733487 -0.20892 2.48624e-015 -3.88251e-018 -2.55438e-014 -83.0074 26.2261 -6.76273 8.83977 -3.46554 -15.6429 0.91008 26.0303 -3.93578 -2.9336e-010 -1.88572e-010 -6.68076e-011 -5.07998e-010 -3.23259e-010 -1.09328e-010 -2.9337e-010 -1.88577e-010 -6.6798e-011 -7.73091 5.47488 -0.417314 -2.93365e-010 -1.88579e-010 -6.68139e-011 -2.90554 0.965183 -0.102902 -2.93368e-010 -1.88581e-010 -6.6806e-011 -10.2786 0.731801 -0.0259123 -2.93354e-010 -1.88579e-010 -6.68107e-011 -2.22167 -0.733487 0.20892 -2.03217e-016 0 -3.88251e-019 3.04392 -17.1167 0.00336682 -0.0160472 16.3745 0.299375 -1.65542 -13.5047 -5.09911 2.03217e-016 0 3.88251e-019 2.92322 -11.9089 -8.56365 0.0572763 8.92593 -0.186841 1.64793 -10.4972 4.55505 
50.5522 84.5939 138.924 -4.33355 -10.804 169.29 -1.71225 -9.14322 6.45456 5.50449 4.60771 1.78256 -4.30089 7.8106 1.04174 11.3892 5.72804 -1.84696 -0 0 0 -0 0 0 7.19979e-015 -5.03701e-014 -1.15928e-014 92.6795 -5.90621 -7.19962 -13.6226 -6.44799 25.0331 -0.400445 17.1693 2.49364 -1.04586e-010 3.0192e-011 4.64141e-010 -1.74523e-010 5.055e-011 8.03633e-010 -1.04589e-010 3.01959e-011 4.64128e-010 7.73091 5.47488 0.417314 -1.0459e-010 3.01953e-011 4.64144e-010 2.90554 0.965183 0.102902 -1.04583e-010 3.01957e-011 4.64146e-010 10.2786 0.731801 0.0259123 -1.04593e-010 3.01968e-011 4.6415e-010 2.22167 -0.733487 -0.20892 7.03478e-015 -5.03765e-014 -1.18028e-014 -88.4797 27.9546 -7.40448 9.3398 -3.66059 -16.6521 1.14684 28.0835 -4.32376 1.80265e-010 -6.30151e-012 -1.82928e-010 3.07187e-010 -1.49062e-011 -3.19321e-010 1.80256e-010 -6.30585e-012 -1.82918e-010 -7.73091 5.47488 -0.417314 1.80261e-010 -6.30744e-012 -1.82935e-010 -2.90554 0.965183 -0.102902 1.80258e-010 -6.30859e-012 -1.82927e-010 -10.2786 0.731801 -0.0259123 1.80268e-010 -6.30734e-012 -1.82932e-010 -2.22167 -0.733487 0.20892 -2.03217e-016 0 -3.88251e-019 3.11579 -17.6676 0.136854 -0.0192454 16.8052 0.306704 -1.81976 -14.3493 -5.47991 2.03217e-016 0 3.88251e-019 2.92456 -12.4611 -9.15287 0.0624367 9.55033 -0.202823 1.82341 -11.4618 4.91516 
50.5507 84.603 138.904 -4.02602 -10.7093 170.781 -1.70318 -9.06451 6.4152 5.48156 4.56613 1.77322 -4.19677 7.70542 1.09472 11.2594 5.71456 -1.71631 -0 0 0 -0 0 0 1.19539e-014 -1.2569e-013 1.14953e-014 92.0594 -6.12257 -7.2393 -13.4853 -6.36658 24.7293 -0.401394 17.2417 2.50436 3.05063e-011 -3.82073e-010 1.3139e-009 7.10446e-011 -6.67431e-010 2.26975e-009 3.05047e-011 -3.82069e-010 1.31388e-009 7.73091 5.47488 0.417314 3.05026e-011 -3.82069e-010 1.3139e-009 2.90554 0.965183 0.102902 3.05088e-011 -3.82069e-010 1.3139e-009 10.2786 0.731801 0.0259123 3.04982e-011 -3.82069e-010 1.31391e-009 2.22167 -0.733487 -0.20892 1.18452e-014 -1.25695e-013 1.12686e-014 -87.7189 27.6297 -7.40449 9.20623 -3.5955 -16.3928 1.15131 28.2161 -4.34569 9.10004e-010 2.89973e-010 -3.48332e-010 1.56349e-009 4.86838e-010 -6.19883e-010 9.09998e-010 2.8997e-010 -3.48322e-010 -7.73091 5.47488 -0.417314 9.10003e-010 2.8997e-010 -3.48339e-010 -2.90554 0.965183 -0.102902 9.09998e-010 2.8997e-010 -3.48333e-010 -10.2786 0.731801 -0.0259123 9.10005e-010 2.89971e-010 -3.48339e-010 -2.22167 -0.733487 0.20892 -2.03217e-016 0 -3.88251e-019 3.1572 -17.5368 0.2978 -0.0198331 16.7393 0.304709 -1.80176 -14.263 -5.43796 2.03217e-016 0 3.88251e-019 2.95996 -12.1975 -9.03176 0.0587415 9.24969 -0.196974 1.80441 -11.2795 4.89525 
